<?xml version="1.0" encoding="UTF-8" standalone="no"?>
<!-- Created with Inkscape (http://www.inkscape.org/) -->

<svg
   xmlns:dc="http://purl.org/dc/elements/1.1/"
   xmlns:cc="http://creativecommons.org/ns#"
   xmlns:rdf="http://www.w3.org/1999/02/22-rdf-syntax-ns#"
   xmlns:svg="http://www.w3.org/2000/svg"
   xmlns="http://www.w3.org/2000/svg"
   xmlns:sodipodi="http://sodipodi.sourceforge.net/DTD/sodipodi-0.dtd"
   xmlns:inkscape="http://www.inkscape.org/namespaces/inkscape"
   width="744.09448819"
   height="1052.3622047"
   id="svg2"
   sodipodi:version="0.32"
   inkscape:version="0.48.1 r9760"
   sodipodi:docname="scrolling_region.svg"
   inkscape:output_extension="org.inkscape.output.svg.inkscape"
   version="1.1">
  <sodipodi:namedview
     id="base"
     pagecolor="#00ff00"
     bordercolor="#666666"
     borderopacity="1.0"
     gridtolerance="10000"
     guidetolerance="10"
     objecttolerance="10"
     inkscape:pageopacity="0.1254902"
     inkscape:pageshadow="2"
     inkscape:zoom="0.91508419"
     inkscape:cx="372.04724"
     inkscape:cy="617.09348"
     inkscape:document-units="px"
     inkscape:current-layer="layer1"
     showgrid="false"
     inkscape:snap-global="false"
     showguides="true"
     inkscape:window-width="1920"
     inkscape:window-height="1054"
     inkscape:window-x="0"
     inkscape:window-y="26"
     inkscape:window-maximized="1">
    <inkscape:grid
       id="grid3157"
       type="xygrid"
       empspacing="5"
       visible="true"
       enabled="true"
       snapvisiblegridlinesonly="true" />
  </sodipodi:namedview>
  <defs
     id="defs4" />
  <metadata
     id="metadata7">
    <rdf:RDF>
      <cc:Work
         rdf:about="">
        <dc:format>image/svg+xml</dc:format>
        <dc:type
           rdf:resource="http://purl.org/dc/dcmitype/StillImage" />
        <dc:title />
      </cc:Work>
    </rdf:RDF>
  </metadata>
  <g
     id="layer1"
     inkscape:groupmode="layer"
     inkscape:label="Layer 1">
    <rect
       y="143.36172"
       x="55.086197"
       height="414.97592"
       width="293.15857"
       id="rect2383"
       style="fill:#ffffff;fill-opacity:1;stroke:#000000;stroke-width:0.78566909;stroke-linecap:butt;stroke-linejoin:miter;stroke-miterlimit:4;stroke-opacity:1;stroke-dasharray:none" />
    <path
       id="path5007"
       d="m 55.200151,35.41207 -0.5,0 0,0.03178 0.5,0 0,0.47687 3,0 0,-1.01731 -3,0 0,0.50866 z"
       style="fill:#000000;fill-opacity:1;stroke:none"
       inkscape:connector-curvature="0" />
    <path
       id="path5005"
       d="m 61.200151,35.92072 3,0 0,-1.01731 -3,0 0,1.01731 z"
       style="fill:#000000;fill-opacity:1;stroke:none"
       inkscape:connector-curvature="0" />
    <path
       id="path5003"
       d="m 67.200151,35.92072 3,0 0,-1.01731 -3,0 0,1.01731 z"
       style="fill:#000000;fill-opacity:1;stroke:none"
       inkscape:connector-curvature="0" />
    <path
       id="path5001"
       d="m 73.200151,35.92072 3,0 0,-1.01731 -3,0 0,1.01731 z"
       style="fill:#000000;fill-opacity:1;stroke:none"
       inkscape:connector-curvature="0" />
    <path
       id="path4999"
       d="m 79.200151,35.92072 3,0 0,-1.01731 -3,0 0,1.01731 z"
       style="fill:#000000;fill-opacity:1;stroke:none"
       inkscape:connector-curvature="0" />
    <path
       id="path4997"
       d="m 85.200151,35.92072 3,0 0,-1.01731 -3,0 0,1.01731 z"
       style="fill:#000000;fill-opacity:1;stroke:none"
       inkscape:connector-curvature="0" />
    <path
       id="path4995"
       d="m 91.200151,35.92072 3,0 0,-1.01731 -3,0 0,1.01731 z"
       style="fill:#000000;fill-opacity:1;stroke:none"
       inkscape:connector-curvature="0" />
    <path
       id="path4993"
       d="m 97.200151,35.92072 2.999999,0 0,-1.01731 -2.999999,0 0,1.01731 z"
       style="fill:#000000;fill-opacity:1;stroke:none"
       inkscape:connector-curvature="0" />
    <path
       id="path4991"
       d="m 103.20015,35.92072 3,0 0,-1.01731 -3,0 0,1.01731 z"
       style="fill:#000000;fill-opacity:1;stroke:none"
       inkscape:connector-curvature="0" />
    <path
       id="path4989"
       d="m 109.20015,35.92072 3,0 0,-1.01731 -3,0 0,1.01731 z"
       style="fill:#000000;fill-opacity:1;stroke:none"
       inkscape:connector-curvature="0" />
    <path
       id="path4987"
       d="m 115.20015,35.92072 3,0 0,-1.01731 -3,0 0,1.01731 z"
       style="fill:#000000;fill-opacity:1;stroke:none"
       inkscape:connector-curvature="0" />
    <path
       id="path4985"
       d="m 121.20015,35.92072 3,0 0,-1.01731 -3,0 0,1.01731 z"
       style="fill:#000000;fill-opacity:1;stroke:none"
       inkscape:connector-curvature="0" />
    <path
       id="path4983"
       d="m 127.20015,35.92072 3,0 0,-1.01731 -3,0 0,1.01731 z"
       style="fill:#000000;fill-opacity:1;stroke:none"
       inkscape:connector-curvature="0" />
    <path
       id="path4981"
       d="m 133.20015,35.92072 3,0 0,-1.01731 -3,0 0,1.01731 z"
       style="fill:#000000;fill-opacity:1;stroke:none"
       inkscape:connector-curvature="0" />
    <path
       id="path4979"
       d="m 139.20015,35.92072 3,0 0,-1.01731 -3,0 0,1.01731 z"
       style="fill:#000000;fill-opacity:1;stroke:none"
       inkscape:connector-curvature="0" />
    <path
       id="path4977"
       d="m 145.20015,35.92072 3,0 0,-1.01731 -3,0 0,1.01731 z"
       style="fill:#000000;fill-opacity:1;stroke:none"
       inkscape:connector-curvature="0" />
    <path
       id="path4975"
       d="m 151.20015,35.92072 3,0 0,-1.01731 -3,0 0,1.01731 z"
       style="fill:#000000;fill-opacity:1;stroke:none"
       inkscape:connector-curvature="0" />
    <path
       id="path4973"
       d="m 157.20015,35.92072 3,0 0,-1.01731 -3,0 0,1.01731 z"
       style="fill:#000000;fill-opacity:1;stroke:none"
       inkscape:connector-curvature="0" />
    <path
       id="path4971"
       d="m 163.20015,35.92072 3,0 0,-1.01731 -3,0 0,1.01731 z"
       style="fill:#000000;fill-opacity:1;stroke:none"
       inkscape:connector-curvature="0" />
    <path
       id="path4969"
       d="m 169.20015,35.92072 3,0 0,-1.01731 -3,0 0,1.01731 z"
       style="fill:#000000;fill-opacity:1;stroke:none"
       inkscape:connector-curvature="0" />
    <path
       id="path4967"
       d="m 175.20015,35.92072 3,0 0,-1.01731 -3,0 0,1.01731 z"
       style="fill:#000000;fill-opacity:1;stroke:none"
       inkscape:connector-curvature="0" />
    <path
       id="path4965"
       d="m 181.20015,35.92072 3,0 0,-1.01731 -3,0 0,1.01731 z"
       style="fill:#000000;fill-opacity:1;stroke:none"
       inkscape:connector-curvature="0" />
    <path
       id="path4963"
       d="m 187.20015,35.92072 3,0 0,-1.01731 -3,0 0,1.01731 z"
       style="fill:#000000;fill-opacity:1;stroke:none"
       inkscape:connector-curvature="0" />
    <path
       id="path4961"
       d="m 193.20015,35.92072 3,0 0,-1.01731 -3,0 0,1.01731 z"
       style="fill:#000000;fill-opacity:1;stroke:none"
       inkscape:connector-curvature="0" />
    <path
       id="path4959"
       d="m 199.20015,35.92072 3,0 0,-1.01731 -3,0 0,1.01731 z"
       style="fill:#000000;fill-opacity:1;stroke:none"
       inkscape:connector-curvature="0" />
    <path
       id="path4957"
       d="m 205.20015,35.92072 3,0 0,-1.01731 -3,0 0,1.01731 z"
       style="fill:#000000;fill-opacity:1;stroke:none"
       inkscape:connector-curvature="0" />
    <path
       id="path4955"
       d="m 211.20015,35.92072 3,0 0,-1.01731 -3,0 0,1.01731 z"
       style="fill:#000000;fill-opacity:1;stroke:none"
       inkscape:connector-curvature="0" />
    <path
       id="path4953"
       d="m 217.20015,35.92072 3,0 0,-1.01731 -3,0 0,1.01731 z"
       style="fill:#000000;fill-opacity:1;stroke:none"
       inkscape:connector-curvature="0" />
    <path
       id="path4951"
       d="m 223.20015,35.92072 3,0 0,-1.01731 -3,0 0,1.01731 z"
       style="fill:#000000;fill-opacity:1;stroke:none"
       inkscape:connector-curvature="0" />
    <path
       id="path4949"
       d="m 229.20015,35.92072 3,0 0,-1.01731 -3,0 0,1.01731 z"
       style="fill:#000000;fill-opacity:1;stroke:none"
       inkscape:connector-curvature="0" />
    <path
       id="path4947"
       d="m 235.20015,35.92072 3,0 0,-1.01731 -3,0 0,1.01731 z"
       style="fill:#000000;fill-opacity:1;stroke:none"
       inkscape:connector-curvature="0" />
    <path
       id="path4945"
       d="m 241.20015,35.92072 3,0 0,-1.01731 -3,0 0,1.01731 z"
       style="fill:#000000;fill-opacity:1;stroke:none"
       inkscape:connector-curvature="0" />
    <path
       id="path4943"
       d="m 247.20015,35.92072 3,0 0,-1.01731 -3,0 0,1.01731 z"
       style="fill:#000000;fill-opacity:1;stroke:none"
       inkscape:connector-curvature="0" />
    <path
       id="path4941"
       d="m 253.20015,35.92072 3,0 0,-1.01731 -3,0 0,1.01731 z"
       style="fill:#000000;fill-opacity:1;stroke:none"
       inkscape:connector-curvature="0" />
    <path
       id="path4939"
       d="m 259.20015,35.92072 3,0 0,-1.01731 -3,0 0,1.01731 z"
       style="fill:#000000;fill-opacity:1;stroke:none"
       inkscape:connector-curvature="0" />
    <path
       id="path4937"
       d="m 265.20015,35.92072 3,0 0,-1.01731 -3,0 0,1.01731 z"
       style="fill:#000000;fill-opacity:1;stroke:none"
       inkscape:connector-curvature="0" />
    <path
       id="path4935"
       d="m 271.20015,35.92072 3,0 0,-1.01731 -3,0 0,1.01731 z"
       style="fill:#000000;fill-opacity:1;stroke:none"
       inkscape:connector-curvature="0" />
    <path
       id="path4933"
       d="m 277.20015,35.92072 3,0 0,-1.01731 -3,0 0,1.01731 z"
       style="fill:#000000;fill-opacity:1;stroke:none"
       inkscape:connector-curvature="0" />
    <path
       id="path4931"
       d="m 283.20015,35.92072 3,0 0,-1.01731 -3,0 0,1.01731 z"
       style="fill:#000000;fill-opacity:1;stroke:none"
       inkscape:connector-curvature="0" />
    <path
       id="path4929"
       d="m 289.20015,35.92072 3,0 0,-1.01731 -3,0 0,1.01731 z"
       style="fill:#000000;fill-opacity:1;stroke:none"
       inkscape:connector-curvature="0" />
    <path
       id="path4927"
       d="m 295.20015,35.92072 3,0 0,-1.01731 -3,0 0,1.01731 z"
       style="fill:#000000;fill-opacity:1;stroke:none"
       inkscape:connector-curvature="0" />
    <path
       id="path4925"
       d="m 301.20015,35.92072 3,0 0,-1.01731 -3,0 0,1.01731 z"
       style="fill:#000000;fill-opacity:1;stroke:none"
       inkscape:connector-curvature="0" />
    <path
       id="path4923"
       d="m 307.20015,35.92072 3,0 0,-1.01731 -3,0 0,1.01731 z"
       style="fill:#000000;fill-opacity:1;stroke:none"
       inkscape:connector-curvature="0" />
    <path
       id="path4921"
       d="m 313.20015,35.92072 3,0 0,-1.01731 -3,0 0,1.01731 z"
       style="fill:#000000;fill-opacity:1;stroke:none"
       inkscape:connector-curvature="0" />
    <path
       id="path4919"
       d="m 319.20015,35.92072 3,0 0,-1.01731 -3,0 0,1.01731 z"
       style="fill:#000000;fill-opacity:1;stroke:none"
       inkscape:connector-curvature="0" />
    <path
       id="path4917"
       d="m 325.20015,35.92072 3,0 0,-1.01731 -3,0 0,1.01731 z"
       style="fill:#000000;fill-opacity:1;stroke:none"
       inkscape:connector-curvature="0" />
    <path
       id="path4915"
       d="m 331.20015,35.92072 3,0 0,-1.01731 -3,0 0,1.01731 z"
       style="fill:#000000;fill-opacity:1;stroke:none"
       inkscape:connector-curvature="0" />
    <path
       id="path4913"
       d="m 337.20015,35.92072 3,0 0,-1.01731 -3,0 0,1.01731 z"
       style="fill:#000000;fill-opacity:1;stroke:none"
       inkscape:connector-curvature="0" />
    <path
       id="path4911"
       d="m 343.20015,35.92072 3,0 0,-1.01731 -3,0 0,1.01731 z"
       style="fill:#000000;fill-opacity:1;stroke:none"
       inkscape:connector-curvature="0" />
    <path
       id="path4909"
       d="m 347.63765,39.5449 1,0 0,-3.05194 -1,0 0,3.05194 z"
       style="fill:#000000;fill-opacity:1;stroke:none"
       inkscape:connector-curvature="0" />
    <path
       id="path4907"
       d="m 54.700151,41.54774 1,0 0,-3.05195 -1,0 0,3.05195 z"
       style="fill:#000000;fill-opacity:1;stroke:none"
       inkscape:connector-curvature="0" />
    <path
       id="path4905"
       d="m 347.63765,45.64878 1,0 0,-3.05195 -1,0 0,3.05195 z"
       style="fill:#000000;fill-opacity:1;stroke:none"
       inkscape:connector-curvature="0" />
    <path
       id="path4903"
       d="m 54.700151,47.65161 1,0 0,-3.05193 -1,0 0,3.05193 z"
       style="fill:#000000;fill-opacity:1;stroke:none"
       inkscape:connector-curvature="0" />
    <path
       id="path4901"
       d="m 347.63765,51.75265 1,0 0,-3.05193 -1,0 0,3.05193 z"
       style="fill:#000000;fill-opacity:1;stroke:none"
       inkscape:connector-curvature="0" />
    <path
       id="path4899"
       d="m 54.700151,53.75549 1,0 0,-3.05194 -1,0 0,3.05194 z"
       style="fill:#000000;fill-opacity:1;stroke:none"
       inkscape:connector-curvature="0" />
    <path
       id="path4897"
       d="m 347.63765,57.85653 1,0 0,-3.05194 -1,0 0,3.05194 z"
       style="fill:#000000;fill-opacity:1;stroke:none"
       inkscape:connector-curvature="0" />
    <path
       id="path4895"
       d="m 54.700151,59.85937 1,0 0,-3.05195 -1,0 0,3.05195 z"
       style="fill:#000000;fill-opacity:1;stroke:none"
       inkscape:connector-curvature="0" />
    <path
       id="path4893"
       d="m 347.63765,63.96041 1,0 0,-3.05194 -1,0 0,3.05194 z"
       style="fill:#000000;fill-opacity:1;stroke:none"
       inkscape:connector-curvature="0" />
    <path
       id="path4891"
       d="m 54.700151,65.96324 1,0 0,-3.05193 -1,0 0,3.05193 z"
       style="fill:#000000;fill-opacity:1;stroke:none"
       inkscape:connector-curvature="0" />
    <path
       id="path4889"
       d="m 347.63765,70.06429 1,0 0,-3.05194 -1,0 0,3.05194 z"
       style="fill:#000000;fill-opacity:1;stroke:none"
       inkscape:connector-curvature="0" />
    <path
       id="path4887"
       d="m 54.700151,72.06712 1,0 0,-3.05194 -1,0 0,3.05194 z"
       style="fill:#000000;fill-opacity:1;stroke:none"
       inkscape:connector-curvature="0" />
    <path
       id="path4885"
       d="m 347.63765,76.16816 1,0 0,-3.05194 -1,0 0,3.05194 z"
       style="fill:#000000;fill-opacity:1;stroke:none"
       inkscape:connector-curvature="0" />
    <path
       id="path4883"
       d="m 54.700151,78.17099 1,0 0,-3.05194 -1,0 0,3.05194 z"
       style="fill:#000000;fill-opacity:1;stroke:none"
       inkscape:connector-curvature="0" />
    <path
       id="path4881"
       d="m 347.63765,82.27203 1,0 0,-3.05193 -1,0 0,3.05193 z"
       style="fill:#000000;fill-opacity:1;stroke:none"
       inkscape:connector-curvature="0" />
    <path
       id="path4879"
       d="m 54.700151,84.27488 1,0 0,-3.05194 -1,0 0,3.05194 z"
       style="fill:#000000;fill-opacity:1;stroke:none"
       inkscape:connector-curvature="0" />
    <path
       id="path4877"
       d="m 347.63765,88.37592 1,0 0,-3.05194 -1,0 0,3.05194 z"
       style="fill:#000000;fill-opacity:1;stroke:none"
       inkscape:connector-curvature="0" />
    <path
       id="path4875"
       d="m 54.700151,90.37875 1,0 0,-3.05194 -1,0 0,3.05194 z"
       style="fill:#000000;fill-opacity:1;stroke:none"
       inkscape:connector-curvature="0" />
    <path
       id="path4873"
       d="m 347.63765,94.47979 1,0 0,-3.05194 -1,0 0,3.05194 z"
       style="fill:#000000;fill-opacity:1;stroke:none"
       inkscape:connector-curvature="0" />
    <path
       id="path4871"
       d="m 54.700151,96.48262 1,0 0,-3.05193 -1,0 0,3.05193 z"
       style="fill:#000000;fill-opacity:1;stroke:none"
       inkscape:connector-curvature="0" />
    <path
       id="path4869"
       d="m 347.63765,100.58367 1,0 0,-3.05194 -1,0 0,3.05194 z"
       style="fill:#000000;fill-opacity:1;stroke:none"
       inkscape:connector-curvature="0" />
    <path
       id="path4867"
       d="m 54.700151,102.58651 1,0 0,-3.05194 -1,0 0,3.05194 z"
       style="fill:#000000;fill-opacity:1;stroke:none"
       inkscape:connector-curvature="0" />
    <path
       id="path4865"
       d="m 347.63765,106.68755 1,0 0,-3.05195 -1,0 0,3.05195 z"
       style="fill:#000000;fill-opacity:1;stroke:none"
       inkscape:connector-curvature="0" />
    <path
       id="path4863"
       d="m 54.700151,108.69038 1,0 0,-3.05194 -1,0 0,3.05194 z"
       style="fill:#000000;fill-opacity:1;stroke:none"
       inkscape:connector-curvature="0" />
    <path
       id="path4861"
       d="m 347.63765,112.79142 1,0 0,-3.05193 -1,0 0,3.05193 z"
       style="fill:#000000;fill-opacity:1;stroke:none"
       inkscape:connector-curvature="0" />
    <path
       id="path4859"
       d="m 54.700151,114.79425 1,0 0,-3.05193 -1,0 0,3.05193 z"
       style="fill:#000000;fill-opacity:1;stroke:none"
       inkscape:connector-curvature="0" />
    <path
       id="path4857"
       d="m 347.63765,118.8953 1,0 0,-3.05194 -1,0 0,3.05194 z"
       style="fill:#000000;fill-opacity:1;stroke:none"
       inkscape:connector-curvature="0" />
    <path
       id="path4855"
       d="m 54.700151,120.89814 1,0 0,-3.05195 -1,0 0,3.05195 z"
       style="fill:#000000;fill-opacity:1;stroke:none"
       inkscape:connector-curvature="0" />
    <path
       id="path4853"
       d="m 347.63765,124.99918 1,0 0,-3.05195 -1,0 0,3.05195 z"
       style="fill:#000000;fill-opacity:1;stroke:none"
       inkscape:connector-curvature="0" />
    <path
       id="path4851"
       d="m 54.700151,127.00201 1,0 0,-3.05193 -1,0 0,3.05193 z"
       style="fill:#000000;fill-opacity:1;stroke:none"
       inkscape:connector-curvature="0" />
    <path
       id="path4849"
       d="m 347.63765,131.10305 1,0 0,-3.05193 -1,0 0,3.05193 z"
       style="fill:#000000;fill-opacity:1;stroke:none"
       inkscape:connector-curvature="0" />
    <path
       id="path4847"
       d="m 54.700151,133.10589 1,0 0,-3.05194 -1,0 0,3.05194 z"
       style="fill:#000000;fill-opacity:1;stroke:none"
       inkscape:connector-curvature="0" />
    <path
       id="path4845"
       d="m 347.63765,137.20693 1,0 0,-3.05194 -1,0 0,3.05194 z"
       style="fill:#000000;fill-opacity:1;stroke:none"
       inkscape:connector-curvature="0" />
    <path
       id="path4843"
       d="m 54.700151,139.20976 1,0 0,-3.05194 -1,0 0,3.05194 z"
       style="fill:#000000;fill-opacity:1;stroke:none"
       inkscape:connector-curvature="0" />
    <path
       id="path4841"
       d="m 347.63765,143.3108 1,0 0,-3.05193 -1,0 0,3.05193 z"
       style="fill:#000000;fill-opacity:1;stroke:none"
       inkscape:connector-curvature="0" />
    <path
       id="path4839"
       d="m 54.700151,143.3108 0,0.50866 0.5,0 1.9375,0 0,-1.01731 -1.4375,0 0,-0.54044 -1,0 0,1.04909 z"
       style="fill:#000000;fill-opacity:1;stroke:none"
       inkscape:connector-curvature="0" />
    <path
       id="path4837"
       d="m 60.137651,143.81946 3,0 0,-1.01731 -3,0 0,1.01731 z"
       style="fill:#000000;fill-opacity:1;stroke:none"
       inkscape:connector-curvature="0" />
    <path
       id="path4835"
       d="m 66.137651,143.81946 3,0 0,-1.01731 -3,0 0,1.01731 z"
       style="fill:#000000;fill-opacity:1;stroke:none"
       inkscape:connector-curvature="0" />
    <path
       id="path4833"
       d="m 72.137651,143.81946 3,0 0,-1.01731 -3,0 0,1.01731 z"
       style="fill:#000000;fill-opacity:1;stroke:none"
       inkscape:connector-curvature="0" />
    <path
       id="path4831"
       d="m 78.137651,143.81946 3,0 0,-1.01731 -3,0 0,1.01731 z"
       style="fill:#000000;fill-opacity:1;stroke:none"
       inkscape:connector-curvature="0" />
    <path
       id="path4829"
       d="m 84.137651,143.81946 3,0 0,-1.01731 -3,0 0,1.01731 z"
       style="fill:#000000;fill-opacity:1;stroke:none"
       inkscape:connector-curvature="0" />
    <path
       id="path4827"
       d="m 90.137651,143.81946 3,0 0,-1.01731 -3,0 0,1.01731 z"
       style="fill:#000000;fill-opacity:1;stroke:none"
       inkscape:connector-curvature="0" />
    <path
       id="path4825"
       d="m 96.137651,143.81946 3,0 0,-1.01731 -3,0 0,1.01731 z"
       style="fill:#000000;fill-opacity:1;stroke:none"
       inkscape:connector-curvature="0" />
    <path
       id="path4823"
       d="m 102.13765,143.81946 3,0 0,-1.01731 -3,0 0,1.01731 z"
       style="fill:#000000;fill-opacity:1;stroke:none"
       inkscape:connector-curvature="0" />
    <path
       id="path4821"
       d="m 108.13765,143.81946 3,0 0,-1.01731 -3,0 0,1.01731 z"
       style="fill:#000000;fill-opacity:1;stroke:none"
       inkscape:connector-curvature="0" />
    <path
       id="path4819"
       d="m 114.13765,143.81946 3,0 0,-1.01731 -3,0 0,1.01731 z"
       style="fill:#000000;fill-opacity:1;stroke:none"
       inkscape:connector-curvature="0" />
    <path
       id="path4817"
       d="m 120.13765,143.81946 3,0 0,-1.01731 -3,0 0,1.01731 z"
       style="fill:#000000;fill-opacity:1;stroke:none"
       inkscape:connector-curvature="0" />
    <path
       id="path4815"
       d="m 126.13765,143.81946 3,0 0,-1.01731 -3,0 0,1.01731 z"
       style="fill:#000000;fill-opacity:1;stroke:none"
       inkscape:connector-curvature="0" />
    <path
       id="path4813"
       d="m 132.13765,143.81946 3,0 0,-1.01731 -3,0 0,1.01731 z"
       style="fill:#000000;fill-opacity:1;stroke:none"
       inkscape:connector-curvature="0" />
    <path
       id="path4811"
       d="m 138.13765,143.81946 3,0 0,-1.01731 -3,0 0,1.01731 z"
       style="fill:#000000;fill-opacity:1;stroke:none"
       inkscape:connector-curvature="0" />
    <path
       id="path4809"
       d="m 144.13765,143.81946 3,0 0,-1.01731 -3,0 0,1.01731 z"
       style="fill:#000000;fill-opacity:1;stroke:none"
       inkscape:connector-curvature="0" />
    <path
       id="path4807"
       d="m 150.13765,143.81946 3,0 0,-1.01731 -3,0 0,1.01731 z"
       style="fill:#000000;fill-opacity:1;stroke:none"
       inkscape:connector-curvature="0" />
    <path
       id="path4805"
       d="m 156.13765,143.81946 3,0 0,-1.01731 -3,0 0,1.01731 z"
       style="fill:#000000;fill-opacity:1;stroke:none"
       inkscape:connector-curvature="0" />
    <path
       id="path4803"
       d="m 162.13765,143.81946 3,0 0,-1.01731 -3,0 0,1.01731 z"
       style="fill:#000000;fill-opacity:1;stroke:none"
       inkscape:connector-curvature="0" />
    <path
       id="path4801"
       d="m 168.13765,143.81946 3,0 0,-1.01731 -3,0 0,1.01731 z"
       style="fill:#000000;fill-opacity:1;stroke:none"
       inkscape:connector-curvature="0" />
    <path
       id="path4799"
       d="m 174.13765,143.81946 3,0 0,-1.01731 -3,0 0,1.01731 z"
       style="fill:#000000;fill-opacity:1;stroke:none"
       inkscape:connector-curvature="0" />
    <path
       id="path4797"
       d="m 180.13765,143.81946 3,0 0,-1.01731 -3,0 0,1.01731 z"
       style="fill:#000000;fill-opacity:1;stroke:none"
       inkscape:connector-curvature="0" />
    <path
       id="path4795"
       d="m 186.13765,143.81946 3,0 0,-1.01731 -3,0 0,1.01731 z"
       style="fill:#000000;fill-opacity:1;stroke:none"
       inkscape:connector-curvature="0" />
    <path
       id="path4793"
       d="m 192.13765,143.81946 3,0 0,-1.01731 -3,0 0,1.01731 z"
       style="fill:#000000;fill-opacity:1;stroke:none"
       inkscape:connector-curvature="0" />
    <path
       id="path4791"
       d="m 198.13765,143.81946 3,0 0,-1.01731 -3,0 0,1.01731 z"
       style="fill:#000000;fill-opacity:1;stroke:none"
       inkscape:connector-curvature="0" />
    <path
       id="path4789"
       d="m 204.13765,143.81946 3,0 0,-1.01731 -3,0 0,1.01731 z"
       style="fill:#000000;fill-opacity:1;stroke:none"
       inkscape:connector-curvature="0" />
    <path
       id="path4787"
       d="m 210.13765,143.81946 3,0 0,-1.01731 -3,0 0,1.01731 z"
       style="fill:#000000;fill-opacity:1;stroke:none"
       inkscape:connector-curvature="0" />
    <path
       id="path4785"
       d="m 216.13765,143.81946 3,0 0,-1.01731 -3,0 0,1.01731 z"
       style="fill:#000000;fill-opacity:1;stroke:none"
       inkscape:connector-curvature="0" />
    <path
       id="path4783"
       d="m 222.13765,143.81946 3,0 0,-1.01731 -3,0 0,1.01731 z"
       style="fill:#000000;fill-opacity:1;stroke:none"
       inkscape:connector-curvature="0" />
    <path
       id="path4781"
       d="m 228.13765,143.81946 3,0 0,-1.01731 -3,0 0,1.01731 z"
       style="fill:#000000;fill-opacity:1;stroke:none"
       inkscape:connector-curvature="0" />
    <path
       id="path4779"
       d="m 234.13765,143.81946 3,0 0,-1.01731 -3,0 0,1.01731 z"
       style="fill:#000000;fill-opacity:1;stroke:none"
       inkscape:connector-curvature="0" />
    <path
       id="path4777"
       d="m 240.13765,143.81946 3,0 0,-1.01731 -3,0 0,1.01731 z"
       style="fill:#000000;fill-opacity:1;stroke:none"
       inkscape:connector-curvature="0" />
    <path
       id="path4775"
       d="m 246.13765,143.81946 3,0 0,-1.01731 -3,0 0,1.01731 z"
       style="fill:#000000;fill-opacity:1;stroke:none"
       inkscape:connector-curvature="0" />
    <path
       id="path4773"
       d="m 252.13765,143.81946 3,0 0,-1.01731 -3,0 0,1.01731 z"
       style="fill:#000000;fill-opacity:1;stroke:none"
       inkscape:connector-curvature="0" />
    <path
       id="path4771"
       d="m 258.13765,143.81946 3,0 0,-1.01731 -3,0 0,1.01731 z"
       style="fill:#000000;fill-opacity:1;stroke:none"
       inkscape:connector-curvature="0" />
    <path
       id="path4769"
       d="m 264.13765,143.81946 3,0 0,-1.01731 -3,0 0,1.01731 z"
       style="fill:#000000;fill-opacity:1;stroke:none"
       inkscape:connector-curvature="0" />
    <path
       id="path4767"
       d="m 270.13765,143.81946 3,0 0,-1.01731 -3,0 0,1.01731 z"
       style="fill:#000000;fill-opacity:1;stroke:none"
       inkscape:connector-curvature="0" />
    <path
       id="path4765"
       d="m 276.13765,143.81946 3,0 0,-1.01731 -3,0 0,1.01731 z"
       style="fill:#000000;fill-opacity:1;stroke:none"
       inkscape:connector-curvature="0" />
    <path
       id="path4763"
       d="m 282.13765,143.81946 3,0 0,-1.01731 -3,0 0,1.01731 z"
       style="fill:#000000;fill-opacity:1;stroke:none"
       inkscape:connector-curvature="0" />
    <path
       id="path4761"
       d="m 288.13765,143.81946 3,0 0,-1.01731 -3,0 0,1.01731 z"
       style="fill:#000000;fill-opacity:1;stroke:none"
       inkscape:connector-curvature="0" />
    <path
       id="path4759"
       d="m 294.13765,143.81946 3,0 0,-1.01731 -3,0 0,1.01731 z"
       style="fill:#000000;fill-opacity:1;stroke:none"
       inkscape:connector-curvature="0" />
    <path
       id="path4757"
       d="m 300.13765,143.81946 3,0 0,-1.01731 -3,0 0,1.01731 z"
       style="fill:#000000;fill-opacity:1;stroke:none"
       inkscape:connector-curvature="0" />
    <path
       id="path4755"
       d="m 306.13765,143.81946 3,0 0,-1.01731 -3,0 0,1.01731 z"
       style="fill:#000000;fill-opacity:1;stroke:none"
       inkscape:connector-curvature="0" />
    <path
       id="path4753"
       d="m 312.13765,143.81946 3,0 0,-1.01731 -3,0 0,1.01731 z"
       style="fill:#000000;fill-opacity:1;stroke:none"
       inkscape:connector-curvature="0" />
    <path
       id="path4751"
       d="m 318.13765,143.81946 3,0 0,-1.01731 -3,0 0,1.01731 z"
       style="fill:#000000;fill-opacity:1;stroke:none"
       inkscape:connector-curvature="0" />
    <path
       id="path4749"
       d="m 324.13765,143.81946 3,0 0,-1.01731 -3,0 0,1.01731 z"
       style="fill:#000000;fill-opacity:1;stroke:none"
       inkscape:connector-curvature="0" />
    <path
       id="path4747"
       d="m 330.13765,143.81946 3,0 0,-1.01731 -3,0 0,1.01731 z"
       style="fill:#000000;fill-opacity:1;stroke:none"
       inkscape:connector-curvature="0" />
    <path
       id="path4745"
       d="m 336.13765,143.81946 3,0 0,-1.01731 -3,0 0,1.01731 z"
       style="fill:#000000;fill-opacity:1;stroke:none"
       inkscape:connector-curvature="0" />
    <path
       id="rect3155"
       d="m 342.13765,143.81946 3,0 0,-1.01731 -3,0 0,1.01731 z"
       style="fill:#000000;fill-opacity:1;stroke:none"
       inkscape:connector-curvature="0" />
    <rect
       y="558.05975"
       x="54.592567"
       height="76.70266"
       width="293.84909"
       id="rect3161"
       style="fill:none;stroke:#000000;stroke-width:0.72233874;stroke-miterlimit:4;stroke-opacity:1;stroke-dasharray:2.16701618, 2.16701618;stroke-dashoffset:0" />
    <rect
       y="362.48434"
       x="36.7314"
       height="129"
       width="328"
       id="rect3163"
       style="fill:#000000;fill-opacity:0.08837208;stroke:#000000;stroke-width:1;stroke-miterlimit:4;stroke-opacity:1;stroke-dasharray:none;stroke-dashoffset:0" />
    <text
       sodipodi:linespacing="100%"
       id="text5009"
       y="66.07753"
       x="73.47509"
       style="font-size:18px;font-style:normal;font-variant:normal;font-weight:normal;font-stretch:normal;text-align:start;line-height:100%;writing-mode:lr-tb;text-anchor:start;fill:#000000;fill-opacity:1;stroke:none;font-family:Sans;-inkscape-font-specification:Sans"
       xml:space="preserve"><tspan
         y="66.07753"
         x="73.47509"
         id="tspan5011"
         sodipodi:role="line">Lost</tspan></text>
    <text
       sodipodi:linespacing="125%"
       id="text5017"
       y="389.22537"
       x="67.818237"
       style="font-size:18px;font-style:normal;font-variant:normal;font-weight:normal;font-stretch:normal;text-align:start;line-height:125%;writing-mode:lr-tb;text-anchor:start;fill:#000000;fill-opacity:1;stroke:none;font-family:Sans;-inkscape-font-specification:Sans"
       xml:space="preserve"><tspan
         id="tspan5021"
         y="389.22537"
         x="67.818237"
         sodipodi:role="line">Visible</tspan></text>
    <text
       id="text5025"
       y="141.48434"
       x="379.73141"
       style="font-size:18px;font-style:normal;font-variant:normal;font-weight:normal;font-stretch:normal;fill:#000000;fill-opacity:1;stroke:none;font-family:Sans;-inkscape-font-specification:Sans"
       xml:space="preserve"><tspan
         y="141.48434"
         x="379.73141"
         id="tspan5027"
         sodipodi:role="line">lower</tspan></text>
    <text
       id="text5029"
       y="364.48434"
       x="397.73141"
       style="font-size:18px;font-style:normal;font-variant:normal;font-weight:normal;font-stretch:normal;fill:#000000;fill-opacity:1;stroke:none;font-family:Sans;-inkscape-font-specification:Sans"
       xml:space="preserve"><tspan
         y="364.48434"
         x="397.73141"
         id="tspan5031"
         sodipodi:role="line">value</tspan></text>
    <text
       id="text5033"
       y="555.48431"
       x="368.73141"
       style="font-size:18px;font-style:normal;font-variant:normal;font-weight:normal;font-stretch:normal;fill:#000000;fill-opacity:1;stroke:none;font-family:Sans;-inkscape-font-specification:Sans"
       xml:space="preserve"><tspan
         id="tspan5037"
         y="555.48431"
         x="368.73141"
         sodipodi:role="line">upper</tspan></text>
    <path
       style="font-size:18px;fill:none;stroke:#000000;stroke-width:1px;stroke-linecap:butt;stroke-linejoin:miter;stroke-opacity:1"
       d="m 377.7314,362.48434 c 10.84722,8.4553 14.34983,22.82431 14.91377,35.94087 0.1026,10.79215 0.3082,21.58631 1.05771,32.35879 0.8793,16.71836 1.51085,34.08548 -4.37398,50.04476 -2.33874,5.13151 -6.73097,9.93089 -12.5975,10.65558"
       id="path5041"
       inkscape:connector-curvature="0" />
    <text
       xml:space="preserve"
       style="font-size:18px;font-style:normal;font-variant:normal;font-weight:normal;font-stretch:normal;fill:#000000;fill-opacity:1;stroke:none;font-family:Sans;-inkscape-font-specification:Sans"
       x="400.23141"
       y="440.98434"
       id="text6482"><tspan
         sodipodi:role="line"
         id="tspan6484"
         x="400.23141"
         y="440.98434">view (page_size)</tspan></text>
    <text
       sodipodi:linespacing="100%"
       id="text5009-2"
       y="619.49188"
       x="67.087196"
       style="font-size:18px;font-style:normal;font-variant:normal;font-weight:normal;font-stretch:normal;text-align:start;line-height:100%;writing-mode:lr-tb;text-anchor:start;fill:#000000;fill-opacity:1;stroke:none;font-family:Sans;-inkscape-font-specification:Sans"
       xml:space="preserve"><tspan
         y="619.49188"
         x="67.087196"
         id="tspan5011-8"
         sodipodi:role="line">Future</tspan></text>
  </g>
</svg>
