<?xml version="1.0" encoding="UTF-8" standalone="no"?>
<!-- Created with Inkscape (http://www.inkscape.org/) -->

<svg
   xmlns:dc="http://purl.org/dc/elements/1.1/"
   xmlns:cc="http://creativecommons.org/ns#"
   xmlns:rdf="http://www.w3.org/1999/02/22-rdf-syntax-ns#"
   xmlns:svg="http://www.w3.org/2000/svg"
   xmlns="http://www.w3.org/2000/svg"
   xmlns:sodipodi="http://sodipodi.sourceforge.net/DTD/sodipodi-0.dtd"
   xmlns:inkscape="http://www.inkscape.org/namespaces/inkscape"
   width="744.09448819"
   height="1052.3622047"
   id="svg2"
   version="1.1"
   inkscape:version="0.48.1 r9760"
   sodipodi:docname="stream.svg"
   inkscape:export-filename="/home/work/terminal/stream.png"
   inkscape:export-xdpi="90"
   inkscape:export-ydpi="90">
  <defs
     id="defs4" />
  <sodipodi:namedview
     id="base"
     pagecolor="#00ff00"
     bordercolor="#666666"
     borderopacity="1.0"
     inkscape:pageopacity="0.1254902"
     inkscape:pageshadow="2"
     inkscape:zoom="0.91508419"
     inkscape:cx="372.04724"
     inkscape:cy="526.18109"
     inkscape:document-units="px"
     inkscape:current-layer="layer1"
     showgrid="false"
     inkscape:snap-global="true"
     showguides="false"
     inkscape:window-width="1920"
     inkscape:window-height="1054"
     inkscape:window-x="0"
     inkscape:window-y="26"
     inkscape:window-maximized="1">
    <inkscape:grid
       type="xygrid"
       id="grid3832"
       empspacing="5"
       visible="true"
       enabled="true"
       snapvisiblegridlinesonly="true" />
  </sodipodi:namedview>
  <metadata
     id="metadata7">
    <rdf:RDF>
      <cc:Work
         rdf:about="">
        <dc:format>image/svg+xml</dc:format>
        <dc:type
           rdf:resource="http://purl.org/dc/dcmitype/StillImage" />
        <dc:title />
      </cc:Work>
    </rdf:RDF>
  </metadata>
  <g
     inkscape:label="Layer 1"
     inkscape:groupmode="layer"
     id="layer1">
    <path
       style="fill:#ffffff;stroke:#000000;stroke-width:1px;stroke-linecap:butt;stroke-linejoin:miter;stroke-opacity:1;fill-opacity:1"
       d="m 76.000001,42.362183 c 0,60.000007 0,60.000007 0,60.000007 12.28269,-7.595897 22.948239,-4.949987 33.249999,0 12.84049,5.01915 25.23933,6.28428 36.75,0 l 0,-60.000007 -69.999999,0 z"
       id="path3894-4"
       sodipodi:nodetypes="cccccc" />
    <path
       style="fill:#ffffff;stroke:#000000;stroke-width:1px;stroke-linecap:butt;stroke-linejoin:miter;stroke-opacity:1;fill-opacity:1"
       d="m 146,182.36218 0,-70 c -11.63011,4.3056 -23.3135,8.10504 -36.25,0 -13.18141,-7.72563 -23.882439,-5.52979 -33.749999,0 l 0,70"
       id="path3896-9"
       sodipodi:nodetypes="ccccc" />
    <path
       style="fill:#ffffff;stroke:#000000;stroke-width:1px;stroke-linecap:butt;stroke-linejoin:miter;stroke-opacity:1;fill-opacity:1"
       d="m 76.000001,182.36218 0,90 c 9.09407,-5.14521 19.930479,-6.80571 34.999999,0 16,7 27.66667,7 35,0 l 0,-90"
       id="path3898-7"
       sodipodi:nodetypes="ccccc" />
    <rect
       style="fill:#ffffff;fill-opacity:1;stroke:none"
       id="rect4953"
       width="70.437126"
       height="226.05402"
       x="75.5"
       y="470.43689" />
    <path
       style="fill:#ffffff;stroke:#000000;stroke-width:1px;stroke-linecap:butt;stroke-linejoin:miter;stroke-opacity:1;fill-opacity:1"
       d="m 76.000001,482.36218 0,-200 c 9.45355,-4.86033 19.770689,-7.66963 34.499999,0 11.19898,6.66076 22.96833,7.33255 35.5,0 l 0,200"
       id="path3900-9"
       sodipodi:nodetypes="ccccc" />
    <path
       style="fill:none;stroke:#000000;stroke-width:1;stroke-linecap:butt;stroke-linejoin:miter;stroke-miterlimit:4;stroke-opacity:1;stroke-dasharray:1, 2;stroke-dashoffset:0"
       d="m 76.000001,192.36218 69.999999,0 0,0"
       id="path3917-4" />
    <text
       xml:space="preserve"
       style="font-size:10px;font-style:normal;font-weight:normal;fill:#000000;fill-opacity:1;stroke:none;font-family:Bitstream Vera Sans"
       x="46"
       y="192.36218"
       id="text4039-4"><tspan
         sodipodi:role="line"
         x="46"
         y="192.36218"
         id="tspan4043-4">Start</tspan></text>
    <text
       xml:space="preserve"
       style="font-size:10px;font-style:normal;font-weight:normal;fill:#000000;fill-opacity:1;stroke:none;font-family:Bitstream Vera Sans"
       x="66"
       y="42.362183"
       id="text4055-9"><tspan
         sodipodi:role="line"
         id="tspan4057-8"
         x="66"
         y="42.362183">0</tspan></text>
    <path
       style="fill:#ffffff;stroke:#000000;stroke-width:1px;stroke-linecap:butt;stroke-linejoin:miter;stroke-opacity:1;fill-opacity:1"
       d="m 146,482.36218 0,200 m -70.000009,0 0,-200"
       id="path3900-0-8"
       sodipodi:nodetypes="cccc" />
    <path
       style="fill:none;stroke:#000000;stroke-width:1;stroke-linecap:butt;stroke-linejoin:miter;stroke-miterlimit:4;stroke-opacity:1;stroke-dasharray:1, 2;stroke-dashoffset:0"
       d="m 75.999991,512.36218 70.000009,0"
       id="path3919-9-1" />
    <path
       style="fill:#ffffff;stroke:#000000;stroke-width:1.05409252999999992px;stroke-linecap:butt;stroke-linejoin:miter;stroke-opacity:1;fill-opacity:1"
       d="m 76.000001,682.36218 0,50 70.000009,0 0,-50"
       id="path3959-8-0" />
    <text
       xml:space="preserve"
       style="font-size:10px;font-style:normal;font-weight:normal;fill:#000000;fill-opacity:1;stroke:none;font-family:Bitstream Vera Sans"
       x="26"
       y="502.36215"
       id="text4047-0-4"><tspan
         sodipodi:role="line"
         id="tspan4049-0-8"
         x="26"
         y="502.36215">Writable</tspan></text>
    <text
       xml:space="preserve"
       style="font-size:10px;font-style:normal;font-weight:normal;fill:#000000;fill-opacity:1;stroke:none;font-family:Bitstream Vera Sans"
       x="46"
       y="732.36218"
       id="text4051-5-7"><tspan
         sodipodi:role="line"
         id="tspan4053-6-5"
         x="46"
         y="732.36218">End</tspan></text>
    <path
       style="fill:none;stroke:#afaeae;stroke-width:1;stroke-linecap:butt;stroke-linejoin:miter;stroke-miterlimit:4;stroke-opacity:1;stroke-dasharray:4, 4;stroke-dashoffset:0"
       d="m 159.82843,512.36218 59,0 c 5,1.25 8.75,15.3125 11.25,35.78125 2.3727,19.42646 3.61946,44.62336 3.74028,70.11409 0.006,1.36766 4.95975,3.44327 4.95975,4.81177 0,1.69798 -4.95475,2.68885 -4.96475,4.38521 -0.14797,25.15307 -1.39298,49.95091 -3.73503,69.12643 -2.5,20.46875 -6.25,34.53125 -11.25,35.78125 l -49.00025,0"
       id="path3961-6-1"
       sodipodi:nodetypes="ccssssscc" />
    <text
       xml:space="preserve"
       style="font-size:12px;font-style:normal;font-weight:normal;fill:#000000;fill-opacity:1;stroke:none;font-family:Bitstream Vera Sans"
       x="246"
       y="622.36218"
       id="text4267-9"><tspan
         sodipodi:role="line"
         x="246"
         y="622.36218"
         id="tspan4271-9">mask+1</tspan></text>
    <path
       style="fill:none;stroke:#000000;stroke-width:1;stroke-linecap:butt;stroke-linejoin:miter;stroke-miterlimit:4;stroke-opacity:1;stroke-dasharray:1, 2;stroke-dashoffset:0"
       d="m 75.999991,572.36218 70.000009,0"
       id="path3919-9-6-2" />
    <path
       style="fill:none;stroke:#afaeae;stroke-width:1;stroke-linecap:butt;stroke-linejoin:miter;stroke-miterlimit:4;stroke-opacity:1;stroke-dasharray:4, 4;stroke-dashoffset:0"
       d="m 157,572.36218 5,0 c 8.66902,23.83981 12.49851,46.6136 13.08589,66.46289 0.0314,1.06174 3.58913,1.76729 3.60223,2.82407 0.0146,1.17764 -3.51783,2.70561 -3.52653,3.87708 -0.16729,23.46503 -4.91382,63.74213 -13.16159,86.83596 l -5,0"
       id="path3961-9-7"
       sodipodi:nodetypes="ccssscc" />
    <text
       xml:space="preserve"
       style="font-size:12px;font-style:normal;font-weight:normal;fill:#000000;fill-opacity:1;stroke:none;font-family:Bitstream Vera Sans"
       x="186"
       y="642.36218"
       id="text3998-5-0"><tspan
         sodipodi:role="line"
         x="186"
         y="642.36218"
         id="tspan4002-2-6">Visible</tspan></text>
    <g
       id="g4766"
       transform="translate(16,0)">
      <text
         id="text3998-2"
         y="112.36218"
         x="320"
         style="font-size:12px;font-style:normal;font-weight:normal;fill:#000000;fill-opacity:1;stroke:none;font-family:Bitstream Vera Sans"
         xml:space="preserve"><tspan
           id="tspan4002-1"
           y="112.36218"
           x="320"
           sodipodi:role="line">Lost</tspan></text>
      <path
         sodipodi:nodetypes="ccssscc"
         id="path4649"
         d="m 140,42.362183 150,0 c 12.51624,21.351767 18.60216,42.274837 19.85112,62.875457 0.16423,2.70893 5.60009,5.41228 5.60067,8.1103 7.1e-4,3.33499 -5.47608,6.66182 -5.71304,9.98096 -1.66615,23.33866 -9.03867,46.29689 -19.73875,69.03328 l -150,0"
         style="fill:none;stroke:#afaeae;stroke-width:1;stroke-linecap:butt;stroke-linejoin:miter;stroke-miterlimit:4;stroke-opacity:1;stroke-dasharray:4, 4;stroke-dashoffset:0" />
    </g>
    <path
       style="fill:none;stroke:#afaeae;stroke-width:1;stroke-linecap:butt;stroke-linejoin:miter;stroke-miterlimit:4;stroke-opacity:1;stroke-dasharray:4, 4;stroke-dashoffset:0"
       d="m 306,192.36218 c 20.06416,83.45835 28.66055,166.91671 28.80046,250.37506 0.005,3.12433 6.02329,5.57926 6.00498,8.70359 -0.017,2.90365 -6.0688,6.47671 -6.10588,9.38036 C 333.54347,551.33485 322.69651,641.84852 306,732.36218 l -80,0"
       id="path4651"
       sodipodi:nodetypes="cssscc" />
    <text
       xml:space="preserve"
       style="font-size:12px;font-style:normal;font-weight:normal;fill:#000000;fill-opacity:1;stroke:none;font-family:Bitstream Vera Sans"
       x="346"
       y="452.36218"
       id="text4693"><tspan
         sodipodi:role="line"
         id="tspan4695"
         x="346"
         y="452.36218">Max</tspan></text>
  </g>
</svg>
