<?xml version="1.0" encoding="UTF-8" standalone="no"?>
<!-- Created with Inkscape (http://www.inkscape.org/) -->

<svg
   xmlns:dc="http://purl.org/dc/elements/1.1/"
   xmlns:cc="http://creativecommons.org/ns#"
   xmlns:rdf="http://www.w3.org/1999/02/22-rdf-syntax-ns#"
   xmlns:svg="http://www.w3.org/2000/svg"
   xmlns="http://www.w3.org/2000/svg"
   xmlns:sodipodi="http://sodipodi.sourceforge.net/DTD/sodipodi-0.dtd"
   xmlns:inkscape="http://www.inkscape.org/namespaces/inkscape"
   width="324.81714"
   height="167.13672"
   id="svg2"
   version="1.1"
   inkscape:version="0.48.1 r9760"
   sodipodi:docname="idea3.svg">
  <defs
     id="defs4">
    <marker
       inkscape:stockid="Arrow1Mend"
       orient="auto"
       refY="0"
       refX="0"
       id="Arrow1Mend"
       style="overflow:visible">
      <path
         id="path5503"
         d="M 0,0 5,-5 -12.5,0 5,5 0,0 z"
         style="fill-rule:evenodd;stroke:#000000;stroke-width:1pt;marker-start:none"
         transform="matrix(-0.4,0,0,-0.4,-4,0)"
         inkscape:connector-curvature="0" />
    </marker>
  </defs>
  <sodipodi:namedview
     id="base"
     pagecolor="#00ff00"
     bordercolor="#666666"
     borderopacity="1.0"
     inkscape:pageopacity="0.1254902"
     inkscape:pageshadow="2"
     inkscape:zoom="3.6605235"
     inkscape:cx="201.23426"
     inkscape:cy="58.970518"
     inkscape:document-units="px"
     inkscape:current-layer="layer1"
     showgrid="true"
     inkscape:window-width="1920"
     inkscape:window-height="1054"
     inkscape:window-x="0"
     inkscape:window-y="26"
     inkscape:window-maximized="1"
     fit-margin-top="20"
     fit-margin-left="20"
     fit-margin-right="20"
     fit-margin-bottom="20">
    <inkscape:grid
       empspacing="4"
       visible="true"
       enabled="true"
       snapvisiblegridlinesonly="true"
       spacingx="4px"
       spacingy="4px"
       type="xygrid"
       id="grid2985" />
  </sodipodi:namedview>
  <metadata
     id="metadata7">
    <rdf:RDF>
      <cc:Work
         rdf:about="">
        <dc:format>image/svg+xml</dc:format>
        <dc:type
           rdf:resource="http://purl.org/dc/dcmitype/StillImage" />
      </cc:Work>
    </rdf:RDF>
  </metadata>
  <g
     inkscape:label="Layer 1"
     inkscape:groupmode="layer"
     id="layer1"
     transform="translate(-5.6828529,-313.72546)"
     style="display:inline">
    <path
       style="fill:#ffffff;fill-opacity:1;stroke:#000000;stroke-width:1;stroke-linecap:round;stroke-linejoin:round;stroke-miterlimit:4;stroke-opacity:1;stroke-dashoffset:0;display:inline"
       d="m 32,348.36219 48,0 0,112 -48,0 c 8,-16.8 8,-39.2 0,-56 -8,-16.8 -7.5085,-39.32208 0,-56 z"
       id="rect5406"
       inkscape:connector-curvature="0"
       sodipodi:nodetypes="cccccc" />
    <rect
       style="fill:#ffffff;fill-opacity:1;stroke:#000000;stroke-width:1;stroke-linecap:round;stroke-linejoin:round;stroke-miterlimit:4;stroke-opacity:1;stroke-dasharray:none;stroke-dashoffset:0;display:inline"
       id="rect5410"
       width="176"
       height="112"
       x="80"
       y="348.36218" />
    <text
       xml:space="preserve"
       style="font-size:14px;font-style:normal;font-weight:normal;line-height:125%;letter-spacing:0px;word-spacing:0px;writing-mode:lr-tb;fill:#000000;fill-opacity:1;stroke:none;display:inline;font-family:Sans"
       x="144"
       y="344.36218"
       id="text5416"
       sodipodi:linespacing="125%"><tspan
         sodipodi:role="line"
         id="tspan5418"
         x="144"
         y="344.36218">Views</tspan></text>
    <text
       xml:space="preserve"
       style="font-size:14px;font-style:normal;font-weight:normal;line-height:125%;letter-spacing:0px;word-spacing:0px;writing-mode:lr-tb;fill:#000000;fill-opacity:1;stroke:none;display:inline;font-family:Sans"
       x="44"
       y="344.36218"
       id="text5424"
       sodipodi:linespacing="125%"><tspan
         sodipodi:role="line"
         id="tspan5426"
         x="44"
         y="344.36218">GT</tspan></text>
    <text
       xml:space="preserve"
       style="font-size:14px;font-style:normal;font-weight:normal;line-height:125%;letter-spacing:0px;word-spacing:0px;writing-mode:lr-tb;fill:#000000;fill-opacity:1;stroke:none;display:inline;font-family:Sans"
       x="260"
       y="344.36218"
       id="text5428"
       sodipodi:linespacing="125%"><tspan
         sodipodi:role="line"
         id="tspan5430"
         x="260"
         y="344.36218">Cache</tspan></text>
    <path
       sodipodi:nodetypes="cccccc"
       inkscape:connector-curvature="0"
       id="path5434"
       d="m 256,348.36219 48,0 c -8,16.8 -8,39.2 0,56.0679 8,16.7321 8,39.1321 0,55.9321 l -48,0 z"
       style="fill:#ffffff;fill-opacity:1;stroke:#000000;stroke-width:1;stroke-linecap:round;stroke-linejoin:round;stroke-miterlimit:4;stroke-opacity:1;stroke-dashoffset:0;display:inline" />
    <path
       style="font-size:medium;font-style:normal;font-variant:normal;font-weight:normal;font-stretch:normal;text-indent:0;text-align:start;text-decoration:none;line-height:normal;letter-spacing:normal;word-spacing:normal;text-transform:none;direction:ltr;block-progression:tb;writing-mode:lr-tb;text-anchor:start;baseline-shift:baseline;color:#000000;fill:#808080;fill-opacity:1;stroke:none;stroke-width:1;marker:none;visibility:visible;display:inline;overflow:visible;enable-background:accumulate;font-family:Sans;-inkscape-font-specification:Sans"
       d="m 95.59375,412.09375 -0.0625,0.4375 0.34375,0.3125 0.125,0.0312 2,0 0.40625,-0.21875 0.0625,-0.46875 -0.34375,-0.3125 -0.125,0 -1.875,0 -0.125,0 z m 4,0 -0.0625,0.4375 0.34375,0.3125 0.125,0.0312 2,0 0.40625,-0.21875 0.0625,-0.46875 -0.34375,-0.3125 -0.125,0 -2,0 z m 4,0 -0.0625,0.4375 0.34375,0.3125 0.125,0.0312 2,0 0.40625,-0.21875 0.0625,-0.46875 -0.34375,-0.3125 -0.125,0 -2,0 z m 4,0 -0.0625,0.4375 0.34375,0.3125 0.125,0.0312 2,0 0.40625,-0.21875 0.0625,-0.46875 -0.34375,-0.3125 -0.125,0 -2,0 z m 4,0 -0.0625,0.4375 0.34375,0.3125 0.125,0.0312 2,0 0.40625,-0.21875 0.0625,-0.46875 -0.34375,-0.3125 -0.125,0 -2,0 z m 4,0 -0.0625,0.4375 0.34375,0.3125 0.125,0.0312 2,0 0.40625,-0.21875 0.0625,-0.46875 -0.34375,-0.3125 -0.125,0 -2,0 z m 4,0 -0.0625,0.4375 0.34375,0.3125 0.125,0.0312 2,0 0.40625,-0.21875 0.0625,-0.46875 -0.34375,-0.3125 -0.125,0 -2,0 z m 4,0 -0.0625,0.4375 0.34375,0.3125 0.125,0.0312 2,0 0.40625,-0.21875 0.0625,-0.46875 -0.34375,-0.3125 -0.125,0 -2,0 z m 4,0 -0.0625,0.4375 0.34375,0.3125 0.125,0.0312 2,0 0.40625,-0.21875 0.0625,-0.46875 -0.34375,-0.3125 -0.125,0 -2,0 z m 4,0 -0.0625,0.4375 0.34375,0.3125 0.125,0.0312 2,0 0.40625,-0.21875 0.0625,-0.46875 -0.34375,-0.3125 -0.125,0 -2,0 z m 4,0 -0.0625,0.4375 0.34375,0.3125 0.125,0.0312 2,0 0.40625,-0.21875 0.0625,-0.46875 -0.34375,-0.3125 -0.125,0 -2,0 z m 4,0 -0.0625,0.4375 0.34375,0.3125 0.125,0.0312 2,0 0.40625,-0.21875 0.0625,-0.46875 -0.34375,-0.3125 -0.125,0 -2,0 z m 4,0 -0.0625,0.4375 0.34375,0.3125 0.125,0.0312 2,0 0.40625,-0.21875 0.0625,-0.46875 -0.34375,-0.3125 -0.125,0 -2,0 z m 4,0 -0.0625,0.4375 0.34375,0.3125 0.125,0.0312 2,0 0.40625,-0.21875 0.0625,-0.46875 -0.34375,-0.3125 -0.125,0 -2,0 z m 4,0 -0.0625,0.4375 0.34375,0.3125 0.125,0.0312 2,0 0.40625,-0.21875 0.0625,-0.46875 -0.34375,-0.3125 -0.125,0 -2,0 z m 4,0 -0.0625,0.4375 0.34375,0.3125 0.125,0.0312 2,0 0.40625,-0.21875 0.0625,-0.46875 -0.34375,-0.3125 -0.125,0 -2,0 z M 159.5,412.25 l 0,0.125 0,2 0.21875,0.40625 0.46875,0.0312 0.3125,-0.34375 0,-0.0937 0,-2 -0.21875,-0.4375 -0.46875,-0.0312 z m -64,2 0,0.125 0,2 0.21875,0.40625 0.46875,0.0312 0.3125,-0.34375 0,-0.0937 0,-2 -0.21875,-0.4375 -0.46875,-0.0312 z m 64,2 0,0.125 0,2 0.21875,0.40625 0.46875,0.0312 0.3125,-0.34375 0,-0.0937 0,-2 -0.21875,-0.4375 -0.46875,-0.0312 z m -64,2 0,0.125 0,2 0.21875,0.40625 0.46875,0.0312 0.3125,-0.34375 0,-0.0937 0,-2 -0.21875,-0.4375 -0.46875,-0.0312 z m 64,2 0,0.125 0,2 0.21875,0.40625 0.46875,0.0312 0.3125,-0.34375 0,-0.0937 0,-2 -0.21875,-0.4375 -0.46875,-0.0312 z m -64,2 0,0.125 0,2 0.21875,0.40625 0.46875,0.0312 0.3125,-0.34375 0,-0.0937 0,-2 -0.21875,-0.4375 -0.46875,-0.0312 z m 64,2 0,0.125 0,2 0.21875,0.40625 0.46875,0.0312 0.3125,-0.34375 0,-0.0937 0,-2 -0.21875,-0.4375 -0.46875,-0.0312 z m -64,2 0,0.125 0,2 0.21875,0.40625 0.46875,0.0312 0.3125,-0.34375 0,-0.0937 0,-2 -0.21875,-0.4375 -0.46875,-0.0312 z m 2.09375,1.84375 -0.0625,0.4375 0.34375,0.3125 0.125,0.0312 2,0 0.40625,-0.21875 0.0625,-0.46875 -0.34375,-0.3125 -0.125,0 -2,0 z m 4,0 -0.0625,0.4375 0.34375,0.3125 0.125,0.0312 2,0 0.40625,-0.21875 0.0625,-0.46875 -0.34375,-0.3125 -0.125,0 -2,0 z m 4,0 -0.0625,0.4375 0.34375,0.3125 0.125,0.0312 2,0 0.40625,-0.21875 0.0625,-0.46875 -0.34375,-0.3125 -0.125,0 -2,0 z m 4,0 -0.0625,0.4375 0.34375,0.3125 0.125,0.0312 2,0 0.40625,-0.21875 0.0625,-0.46875 -0.34375,-0.3125 -0.125,0 -2,0 z m 4,0 -0.0625,0.4375 0.34375,0.3125 0.125,0.0312 2,0 0.40625,-0.21875 0.0625,-0.46875 -0.34375,-0.3125 -0.125,0 -2,0 z m 4,0 -0.0625,0.4375 0.34375,0.3125 0.125,0.0312 2,0 0.40625,-0.21875 0.0625,-0.46875 -0.34375,-0.3125 -0.125,0 -2,0 z m 4,0 -0.0625,0.4375 0.34375,0.3125 0.125,0.0312 2,0 0.40625,-0.21875 0.0625,-0.46875 -0.34375,-0.3125 -0.125,0 -2,0 z m 4,0 -0.0625,0.4375 0.34375,0.3125 0.125,0.0312 2,0 0.40625,-0.21875 0.0625,-0.46875 -0.34375,-0.3125 -0.125,0 -2,0 z m 4,0 -0.0625,0.4375 0.34375,0.3125 0.125,0.0312 2,0 0.40625,-0.21875 0.0625,-0.46875 -0.34375,-0.3125 -0.125,0 -2,0 z m 4,0 -0.0625,0.4375 0.34375,0.3125 0.125,0.0312 2,0 0.40625,-0.21875 0.0625,-0.46875 -0.34375,-0.3125 -0.125,0 -2,0 z m 4,0 -0.0625,0.4375 0.34375,0.3125 0.125,0.0312 2,0 0.40625,-0.21875 0.0625,-0.46875 -0.34375,-0.3125 -0.125,0 -2,0 z m 4,0 -0.0625,0.4375 0.34375,0.3125 0.125,0.0312 2,0 0.40625,-0.21875 0.0625,-0.46875 -0.34375,-0.3125 -0.125,0 -2,0 z m 4,0 -0.0625,0.4375 0.34375,0.3125 0.125,0.0312 2,0 0.40625,-0.21875 0.0625,-0.46875 -0.34375,-0.3125 -0.125,0 -2,0 z m 4,0 -0.0625,0.4375 0.34375,0.3125 0.125,0.0312 2,0 0.40625,-0.21875 0.0625,-0.46875 -0.34375,-0.3125 -0.125,0 -2,0 z m 4,0 -0.0625,0.4375 0.34375,0.3125 0.125,0.0312 2,0 0.40625,-0.21875 0.0625,-0.46875 -0.34375,-0.3125 -0.125,0 -2,0 z m 4,0 -0.0625,0.4375 0.34375,0.3125 0.125,0.0312 2,0 0.40625,-0.21875 0.0625,-0.46875 -0.34375,-0.3125 -0.125,0 -2,0 z"
       id="rect5436"
       inkscape:connector-curvature="0" />
    <path
       style="font-size:medium;font-style:normal;font-variant:normal;font-weight:normal;font-stretch:normal;text-indent:0;text-align:start;text-decoration:none;line-height:normal;letter-spacing:normal;word-spacing:normal;text-transform:none;direction:ltr;block-progression:tb;writing-mode:lr-tb;text-anchor:start;baseline-shift:baseline;color:#000000;fill:#808080;fill-opacity:1;stroke:none;stroke-width:1;marker:none;visibility:visible;display:inline;overflow:visible;enable-background:accumulate;font-family:Sans;-inkscape-font-specification:Sans"
       d="m 159.5,428.25 0,0.125 0,2 0.21875,0.40625 0.46875,0.0312 0.3125,-0.34375 0,-0.0937 0,-2 -0.21875,-0.4375 -0.46875,-0.0312 z"
       id="path6022"
       inkscape:connector-curvature="0" />
    <path
       style="font-size:medium;font-style:normal;font-variant:normal;font-weight:normal;font-stretch:normal;text-indent:0;text-align:start;text-decoration:none;line-height:normal;letter-spacing:normal;word-spacing:normal;text-transform:none;direction:ltr;block-progression:tb;writing-mode:lr-tb;text-anchor:start;baseline-shift:baseline;color:#000000;fill:#808080;fill-opacity:1;stroke:none;stroke-width:1;marker:none;visibility:visible;display:inline;overflow:visible;enable-background:accumulate;font-family:Sans;-inkscape-font-specification:Sans"
       d="m 95.5,430.25 0,0.125 0,2 0.21875,0.40625 0.46875,0.0312 0.3125,-0.34375 0,-0.0937 0,-2 -0.21875,-0.4375 -0.46875,-0.0312 z"
       id="path6020"
       inkscape:connector-curvature="0" />
    <path
       style="font-size:medium;font-style:normal;font-variant:normal;font-weight:normal;font-stretch:normal;text-indent:0;text-align:start;text-decoration:none;line-height:normal;letter-spacing:normal;word-spacing:normal;text-transform:none;direction:ltr;block-progression:tb;writing-mode:lr-tb;text-anchor:start;baseline-shift:baseline;color:#000000;fill:#808080;fill-opacity:1;stroke:none;stroke-width:1;marker:none;visibility:visible;display:inline;overflow:visible;enable-background:accumulate;font-family:Sans;-inkscape-font-specification:Sans"
       d="m 159.5,432.25 0,0.125 0,2 0.21875,0.40625 0.46875,0.0312 0.3125,-0.34375 0,-0.0937 0,-2 -0.21875,-0.4375 -0.46875,-0.0312 z"
       id="path6018"
       inkscape:connector-curvature="0" />
    <path
       style="font-size:medium;font-style:normal;font-variant:normal;font-weight:normal;font-stretch:normal;text-indent:0;text-align:start;text-decoration:none;line-height:normal;letter-spacing:normal;word-spacing:normal;text-transform:none;direction:ltr;block-progression:tb;writing-mode:lr-tb;text-anchor:start;baseline-shift:baseline;color:#000000;fill:#808080;fill-opacity:1;stroke:none;stroke-width:1;marker:none;visibility:visible;display:inline;overflow:visible;enable-background:accumulate;font-family:Sans;-inkscape-font-specification:Sans"
       d="m 95.5,434.25 0,0.125 0,2 0.21875,0.40625 0.46875,0.0312 0.3125,-0.34375 0,-0.0937 0,-2 -0.21875,-0.4375 -0.46875,-0.0312 z"
       id="path6016"
       inkscape:connector-curvature="0" />
    <path
       style="font-size:medium;font-style:normal;font-variant:normal;font-weight:normal;font-stretch:normal;text-indent:0;text-align:start;text-decoration:none;line-height:normal;letter-spacing:normal;word-spacing:normal;text-transform:none;direction:ltr;block-progression:tb;writing-mode:lr-tb;text-anchor:start;baseline-shift:baseline;color:#000000;fill:#808080;fill-opacity:1;stroke:none;stroke-width:1;marker:none;visibility:visible;display:inline;overflow:visible;enable-background:accumulate;font-family:Sans;-inkscape-font-specification:Sans"
       d="m 159.5,436.25 0,0.125 0,2 0.21875,0.40625 0.46875,0.0312 0.3125,-0.34375 0,-0.0937 0,-2 -0.21875,-0.4375 -0.46875,-0.0312 z"
       id="path6014"
       inkscape:connector-curvature="0" />
    <path
       style="font-size:medium;font-style:normal;font-variant:normal;font-weight:normal;font-stretch:normal;text-indent:0;text-align:start;text-decoration:none;line-height:normal;letter-spacing:normal;word-spacing:normal;text-transform:none;direction:ltr;block-progression:tb;writing-mode:lr-tb;text-anchor:start;baseline-shift:baseline;color:#000000;fill:#808080;fill-opacity:1;stroke:none;stroke-width:1;marker:none;visibility:visible;display:inline;overflow:visible;enable-background:accumulate;font-family:Sans;-inkscape-font-specification:Sans"
       d="m 95.5,438.25 0,0.125 0,2 0.21875,0.40625 0.46875,0.0312 0.3125,-0.34375 0,-0.0937 0,-2 -0.21875,-0.4375 -0.46875,-0.0312 z"
       id="path6012"
       inkscape:connector-curvature="0" />
    <path
       style="font-size:medium;font-style:normal;font-variant:normal;font-weight:normal;font-stretch:normal;text-indent:0;text-align:start;text-decoration:none;line-height:normal;letter-spacing:normal;word-spacing:normal;text-transform:none;direction:ltr;block-progression:tb;writing-mode:lr-tb;text-anchor:start;baseline-shift:baseline;color:#000000;fill:#808080;fill-opacity:1;stroke:none;stroke-width:1;marker:none;visibility:visible;display:inline;overflow:visible;enable-background:accumulate;font-family:Sans;-inkscape-font-specification:Sans"
       d="m 159.5,440.25 0,0.125 0,2 0.21875,0.40625 0.46875,0.0312 0.3125,-0.34375 0,-0.0937 0,-2 -0.21875,-0.4375 -0.46875,-0.0312 z"
       id="path6010"
       inkscape:connector-curvature="0" />
    <path
       style="font-size:medium;font-style:normal;font-variant:normal;font-weight:normal;font-stretch:normal;text-indent:0;text-align:start;text-decoration:none;line-height:normal;letter-spacing:normal;word-spacing:normal;text-transform:none;direction:ltr;block-progression:tb;writing-mode:lr-tb;text-anchor:start;baseline-shift:baseline;color:#000000;fill:#808080;fill-opacity:1;stroke:none;stroke-width:1;marker:none;visibility:visible;display:inline;overflow:visible;enable-background:accumulate;font-family:Sans;-inkscape-font-specification:Sans"
       d="m 95.5,442.25 0,0.125 0,2 0.21875,0.40625 0.46875,0.0312 0.3125,-0.34375 0,-0.0937 0,-2 -0.21875,-0.4375 -0.46875,-0.0312 z"
       id="path6008"
       inkscape:connector-curvature="0" />
    <path
       style="font-size:medium;font-style:normal;font-variant:normal;font-weight:normal;font-stretch:normal;text-indent:0;text-align:start;text-decoration:none;line-height:normal;letter-spacing:normal;word-spacing:normal;text-transform:none;direction:ltr;block-progression:tb;writing-mode:lr-tb;text-anchor:start;baseline-shift:baseline;color:#000000;fill:#808080;fill-opacity:1;stroke:none;stroke-width:1;marker:none;visibility:visible;display:inline;overflow:visible;enable-background:accumulate;font-family:Sans;-inkscape-font-specification:Sans"
       d="m 97.59375,444.09375 -0.0625,0.4375 0.34375,0.3125 0.125,0.0312 2,0 0.40625,-0.21875 0.0625,-0.46875 -0.34375,-0.3125 -0.125,0 -2,0 z"
       id="path6006"
       inkscape:connector-curvature="0" />
    <path
       style="font-size:medium;font-style:normal;font-variant:normal;font-weight:normal;font-stretch:normal;text-indent:0;text-align:start;text-decoration:none;line-height:normal;letter-spacing:normal;word-spacing:normal;text-transform:none;direction:ltr;block-progression:tb;writing-mode:lr-tb;text-anchor:start;baseline-shift:baseline;color:#000000;fill:#808080;fill-opacity:1;stroke:none;stroke-width:1;marker:none;visibility:visible;display:inline;overflow:visible;enable-background:accumulate;font-family:Sans;-inkscape-font-specification:Sans"
       d="m 101.59375,444.09375 -0.0625,0.4375 0.34375,0.3125 0.125,0.0312 2,0 0.40625,-0.21875 0.0625,-0.46875 -0.34375,-0.3125 -0.125,0 -2,0 z"
       id="path6004"
       inkscape:connector-curvature="0" />
    <path
       style="font-size:medium;font-style:normal;font-variant:normal;font-weight:normal;font-stretch:normal;text-indent:0;text-align:start;text-decoration:none;line-height:normal;letter-spacing:normal;word-spacing:normal;text-transform:none;direction:ltr;block-progression:tb;writing-mode:lr-tb;text-anchor:start;baseline-shift:baseline;color:#000000;fill:#808080;fill-opacity:1;stroke:none;stroke-width:1;marker:none;visibility:visible;display:inline;overflow:visible;enable-background:accumulate;font-family:Sans;-inkscape-font-specification:Sans"
       d="m 105.59375,444.09375 -0.0625,0.4375 0.34375,0.3125 0.125,0.0312 2,0 0.40625,-0.21875 0.0625,-0.46875 -0.34375,-0.3125 -0.125,0 -2,0 z"
       id="path6002"
       inkscape:connector-curvature="0" />
    <path
       style="font-size:medium;font-style:normal;font-variant:normal;font-weight:normal;font-stretch:normal;text-indent:0;text-align:start;text-decoration:none;line-height:normal;letter-spacing:normal;word-spacing:normal;text-transform:none;direction:ltr;block-progression:tb;writing-mode:lr-tb;text-anchor:start;baseline-shift:baseline;color:#000000;fill:#808080;fill-opacity:1;stroke:none;stroke-width:1;marker:none;visibility:visible;display:inline;overflow:visible;enable-background:accumulate;font-family:Sans;-inkscape-font-specification:Sans"
       d="m 109.59375,444.09375 -0.0625,0.4375 0.34375,0.3125 0.125,0.0312 2,0 0.40625,-0.21875 0.0625,-0.46875 -0.34375,-0.3125 -0.125,0 -2,0 z"
       id="path6000"
       inkscape:connector-curvature="0" />
    <path
       style="font-size:medium;font-style:normal;font-variant:normal;font-weight:normal;font-stretch:normal;text-indent:0;text-align:start;text-decoration:none;line-height:normal;letter-spacing:normal;word-spacing:normal;text-transform:none;direction:ltr;block-progression:tb;writing-mode:lr-tb;text-anchor:start;baseline-shift:baseline;color:#000000;fill:#808080;fill-opacity:1;stroke:none;stroke-width:1;marker:none;visibility:visible;display:inline;overflow:visible;enable-background:accumulate;font-family:Sans;-inkscape-font-specification:Sans"
       d="m 113.59375,444.09375 -0.0625,0.4375 0.34375,0.3125 0.125,0.0312 2,0 0.40625,-0.21875 0.0625,-0.46875 -0.34375,-0.3125 -0.125,0 -2,0 z"
       id="path5998"
       inkscape:connector-curvature="0" />
    <path
       style="font-size:medium;font-style:normal;font-variant:normal;font-weight:normal;font-stretch:normal;text-indent:0;text-align:start;text-decoration:none;line-height:normal;letter-spacing:normal;word-spacing:normal;text-transform:none;direction:ltr;block-progression:tb;writing-mode:lr-tb;text-anchor:start;baseline-shift:baseline;color:#000000;fill:#808080;fill-opacity:1;stroke:none;stroke-width:1;marker:none;visibility:visible;display:inline;overflow:visible;enable-background:accumulate;font-family:Sans;-inkscape-font-specification:Sans"
       d="m 117.59375,444.09375 -0.0625,0.4375 0.34375,0.3125 0.125,0.0312 2,0 0.40625,-0.21875 0.0625,-0.46875 -0.34375,-0.3125 -0.125,0 -2,0 z"
       id="path5996"
       inkscape:connector-curvature="0" />
    <path
       style="font-size:medium;font-style:normal;font-variant:normal;font-weight:normal;font-stretch:normal;text-indent:0;text-align:start;text-decoration:none;line-height:normal;letter-spacing:normal;word-spacing:normal;text-transform:none;direction:ltr;block-progression:tb;writing-mode:lr-tb;text-anchor:start;baseline-shift:baseline;color:#000000;fill:#808080;fill-opacity:1;stroke:none;stroke-width:1;marker:none;visibility:visible;display:inline;overflow:visible;enable-background:accumulate;font-family:Sans;-inkscape-font-specification:Sans"
       d="m 121.59375,444.09375 -0.0625,0.4375 0.34375,0.3125 0.125,0.0312 2,0 0.40625,-0.21875 0.0625,-0.46875 -0.34375,-0.3125 -0.125,0 -2,0 z"
       id="path5994"
       inkscape:connector-curvature="0" />
    <path
       style="font-size:medium;font-style:normal;font-variant:normal;font-weight:normal;font-stretch:normal;text-indent:0;text-align:start;text-decoration:none;line-height:normal;letter-spacing:normal;word-spacing:normal;text-transform:none;direction:ltr;block-progression:tb;writing-mode:lr-tb;text-anchor:start;baseline-shift:baseline;color:#000000;fill:#808080;fill-opacity:1;stroke:none;stroke-width:1;marker:none;visibility:visible;display:inline;overflow:visible;enable-background:accumulate;font-family:Sans;-inkscape-font-specification:Sans"
       d="m 125.59375,444.09375 -0.0625,0.4375 0.34375,0.3125 0.125,0.0312 2,0 0.40625,-0.21875 0.0625,-0.46875 -0.34375,-0.3125 -0.125,0 -2,0 z"
       id="path5992"
       inkscape:connector-curvature="0" />
    <path
       style="font-size:medium;font-style:normal;font-variant:normal;font-weight:normal;font-stretch:normal;text-indent:0;text-align:start;text-decoration:none;line-height:normal;letter-spacing:normal;word-spacing:normal;text-transform:none;direction:ltr;block-progression:tb;writing-mode:lr-tb;text-anchor:start;baseline-shift:baseline;color:#000000;fill:#808080;fill-opacity:1;stroke:none;stroke-width:1;marker:none;visibility:visible;display:inline;overflow:visible;enable-background:accumulate;font-family:Sans;-inkscape-font-specification:Sans"
       d="m 129.59375,444.09375 -0.0625,0.4375 0.34375,0.3125 0.125,0.0312 2,0 0.40625,-0.21875 0.0625,-0.46875 -0.34375,-0.3125 -0.125,0 -2,0 z"
       id="path5990"
       inkscape:connector-curvature="0" />
    <path
       style="font-size:medium;font-style:normal;font-variant:normal;font-weight:normal;font-stretch:normal;text-indent:0;text-align:start;text-decoration:none;line-height:normal;letter-spacing:normal;word-spacing:normal;text-transform:none;direction:ltr;block-progression:tb;writing-mode:lr-tb;text-anchor:start;baseline-shift:baseline;color:#000000;fill:#808080;fill-opacity:1;stroke:none;stroke-width:1;marker:none;visibility:visible;display:inline;overflow:visible;enable-background:accumulate;font-family:Sans;-inkscape-font-specification:Sans"
       d="m 133.59375,444.09375 -0.0625,0.4375 0.34375,0.3125 0.125,0.0312 2,0 0.40625,-0.21875 0.0625,-0.46875 -0.34375,-0.3125 -0.125,0 -2,0 z"
       id="path5988"
       inkscape:connector-curvature="0" />
    <path
       style="font-size:medium;font-style:normal;font-variant:normal;font-weight:normal;font-stretch:normal;text-indent:0;text-align:start;text-decoration:none;line-height:normal;letter-spacing:normal;word-spacing:normal;text-transform:none;direction:ltr;block-progression:tb;writing-mode:lr-tb;text-anchor:start;baseline-shift:baseline;color:#000000;fill:#808080;fill-opacity:1;stroke:none;stroke-width:1;marker:none;visibility:visible;display:inline;overflow:visible;enable-background:accumulate;font-family:Sans;-inkscape-font-specification:Sans"
       d="m 137.59375,444.09375 -0.0625,0.4375 0.34375,0.3125 0.125,0.0312 2,0 0.40625,-0.21875 0.0625,-0.46875 -0.34375,-0.3125 -0.125,0 -2,0 z"
       id="path5986"
       inkscape:connector-curvature="0" />
    <path
       style="font-size:medium;font-style:normal;font-variant:normal;font-weight:normal;font-stretch:normal;text-indent:0;text-align:start;text-decoration:none;line-height:normal;letter-spacing:normal;word-spacing:normal;text-transform:none;direction:ltr;block-progression:tb;writing-mode:lr-tb;text-anchor:start;baseline-shift:baseline;color:#000000;fill:#808080;fill-opacity:1;stroke:none;stroke-width:1;marker:none;visibility:visible;display:inline;overflow:visible;enable-background:accumulate;font-family:Sans;-inkscape-font-specification:Sans"
       d="m 141.59375,444.09375 -0.0625,0.4375 0.34375,0.3125 0.125,0.0312 2,0 0.40625,-0.21875 0.0625,-0.46875 -0.34375,-0.3125 -0.125,0 -2,0 z"
       id="path5984"
       inkscape:connector-curvature="0" />
    <path
       style="font-size:medium;font-style:normal;font-variant:normal;font-weight:normal;font-stretch:normal;text-indent:0;text-align:start;text-decoration:none;line-height:normal;letter-spacing:normal;word-spacing:normal;text-transform:none;direction:ltr;block-progression:tb;writing-mode:lr-tb;text-anchor:start;baseline-shift:baseline;color:#000000;fill:#808080;fill-opacity:1;stroke:none;stroke-width:1;marker:none;visibility:visible;display:inline;overflow:visible;enable-background:accumulate;font-family:Sans;-inkscape-font-specification:Sans"
       d="m 145.59375,444.09375 -0.0625,0.4375 0.34375,0.3125 0.125,0.0312 2,0 0.40625,-0.21875 0.0625,-0.46875 -0.34375,-0.3125 -0.125,0 -2,0 z"
       id="path5982"
       inkscape:connector-curvature="0" />
    <path
       style="font-size:medium;font-style:normal;font-variant:normal;font-weight:normal;font-stretch:normal;text-indent:0;text-align:start;text-decoration:none;line-height:normal;letter-spacing:normal;word-spacing:normal;text-transform:none;direction:ltr;block-progression:tb;writing-mode:lr-tb;text-anchor:start;baseline-shift:baseline;color:#000000;fill:#808080;fill-opacity:1;stroke:none;stroke-width:1;marker:none;visibility:visible;display:inline;overflow:visible;enable-background:accumulate;font-family:Sans;-inkscape-font-specification:Sans"
       d="m 149.59375,444.09375 -0.0625,0.4375 0.34375,0.3125 0.125,0.0312 2,0 0.40625,-0.21875 0.0625,-0.46875 -0.34375,-0.3125 -0.125,0 -2,0 z"
       id="path5980"
       inkscape:connector-curvature="0" />
    <path
       style="font-size:medium;font-style:normal;font-variant:normal;font-weight:normal;font-stretch:normal;text-indent:0;text-align:start;text-decoration:none;line-height:normal;letter-spacing:normal;word-spacing:normal;text-transform:none;direction:ltr;block-progression:tb;writing-mode:lr-tb;text-anchor:start;baseline-shift:baseline;color:#000000;fill:#808080;fill-opacity:1;stroke:none;stroke-width:1;marker:none;visibility:visible;display:inline;overflow:visible;enable-background:accumulate;font-family:Sans;-inkscape-font-specification:Sans"
       d="m 153.59375,444.09375 -0.0625,0.4375 0.34375,0.3125 0.125,0.0312 2,0 0.40625,-0.21875 0.0625,-0.46875 -0.34375,-0.3125 -0.125,0 -2,0 z"
       id="path5978"
       inkscape:connector-curvature="0" />
    <path
       style="font-size:medium;font-style:normal;font-variant:normal;font-weight:normal;font-stretch:normal;text-indent:0;text-align:start;text-decoration:none;line-height:normal;letter-spacing:normal;word-spacing:normal;text-transform:none;direction:ltr;block-progression:tb;writing-mode:lr-tb;text-anchor:start;baseline-shift:baseline;color:#000000;fill:#808080;fill-opacity:1;stroke:none;stroke-width:1;marker:none;visibility:visible;display:inline;overflow:visible;enable-background:accumulate;font-family:Sans;-inkscape-font-specification:Sans"
       d="m 157.59375,444.09375 -0.0625,0.4375 0.34375,0.3125 0.125,0.0312 2,0 0.40625,-0.21875 0.0625,-0.46875 -0.34375,-0.3125 -0.125,0 -2,0 z"
       id="rect5438"
       inkscape:connector-curvature="0" />
    <text
       xml:space="preserve"
       style="font-size:14px;font-style:normal;font-weight:normal;line-height:125%;letter-spacing:0px;word-spacing:0px;writing-mode:lr-tb;fill:#000000;fill-opacity:1;stroke:none;display:inline;font-family:Sans"
       x="100"
       y="424.36218"
       id="text5440"
       sodipodi:linespacing="125%"><tspan
         sodipodi:role="line"
         id="tspan5442"
         x="100"
         y="424.36218">readline</tspan></text>
    <text
       xml:space="preserve"
       style="font-size:14px;font-style:normal;font-weight:normal;line-height:125%;letter-spacing:0px;word-spacing:0px;writing-mode:lr-tb;fill:#000000;fill-opacity:1;stroke:none;display:inline;font-family:Sans"
       x="99.9104"
       y="440.44592"
       id="text5444"
       sodipodi:linespacing="125%"><tspan
         sodipodi:role="line"
         id="tspan5446"
         x="99.9104"
         y="440.44592">bash</tspan></text>
    <rect
       style="fill:none;stroke:#808080;stroke-width:1;stroke-linecap:round;stroke-linejoin:round;stroke-miterlimit:4;stroke-opacity:1;stroke-dasharray:2, 2;stroke-dashoffset:0;display:inline"
       id="rect5436-1"
       width="64"
       height="16"
       x="176"
       y="412.36218" />
    <text
       xml:space="preserve"
       style="font-size:14px;font-style:normal;font-weight:normal;line-height:125%;letter-spacing:0px;word-spacing:0px;writing-mode:lr-tb;fill:#000000;fill-opacity:1;stroke:none;display:inline;font-family:Sans"
       x="184"
       y="424.36218"
       id="text5440-7"
       sodipodi:linespacing="125%"><tspan
         sodipodi:role="line"
         id="tspan5442-8"
         x="184"
         y="424.36218">vt100</tspan></text>
    <path
       style="fill:none;stroke:#000000;stroke-width:1px;stroke-linecap:butt;stroke-linejoin:miter;stroke-opacity:1;marker-end:url(#Arrow1Mend);display:inline"
       d="m 56,420.36218 40,0"
       id="path5483"
       inkscape:connector-curvature="0" />
    <path
       style="fill:none;stroke:#000000;stroke-width:1px;stroke-linecap:butt;stroke-linejoin:miter;stroke-opacity:1;marker-end:url(#Arrow1Mend);display:inline"
       d="m 160,420.36218 16,0"
       id="path5485"
       inkscape:connector-curvature="0" />
    <path
       style="fill:none;stroke:#000000;stroke-width:1px;stroke-linecap:butt;stroke-linejoin:miter;stroke-opacity:1;marker-end:url(#Arrow1Mend);display:inline"
       d="m 208,412.36218 0,-16"
       id="path5487"
       inkscape:connector-curvature="0" />
    <path
       style="fill:none;stroke:#000000;stroke-width:1px;stroke-linecap:butt;stroke-linejoin:miter;stroke-opacity:1;marker-end:url(#Arrow1Mend);display:inline"
       d="m 240,420.36218 40,0"
       id="path5489"
       inkscape:connector-curvature="0" />
  </g>
</svg>
